<svg id="Capa_1" data-name="Capa 1" xmlns="http://www.w3.org/2000/svg" xmlns:xlink="http://www.w3.org/1999/xlink" viewBox="0 0 1200 1200"><defs><style>.cls-1{fill:url(#Degradado_sin_nombre_312);}.cls-2{fill:url(#Degradado_sin_nombre_275);}.cls-3{fill:url(#Degradado_sin_nombre_283);}.cls-4{fill:url(#Degradado_sin_nombre_283-2);}.cls-5{fill:url(#Degradado_sin_nombre_285);}</style><linearGradient id="Degradado_sin_nombre_312" x1="1129.59" y1="894.14" x2="448.09" y2="894.14" gradientUnits="userSpaceOnUse"><stop offset="0" stop-color="#faad00"/><stop offset="0.62" stop-color="#ff7e21"/></linearGradient><linearGradient id="Degradado_sin_nombre_275" x1="70.41" y1="600.18" x2="544.63" y2="600.18" gradientUnits="userSpaceOnUse"><stop offset="0" stop-color="#fab720"/><stop offset="0.62" stop-color="#ff7e21"/></linearGradient><linearGradient id="Degradado_sin_nombre_283" x1="485.94" y1="315.24" x2="485.94" y2="424.85" gradientUnits="userSpaceOnUse"><stop offset="0" stop-color="#ff7e21"/><stop offset="1" stop-color="#bd5d18"/></linearGradient><linearGradient id="Degradado_sin_nombre_283-2" x1="3372.04" y1="-772.92" x2="3372.04" y2="-664.73" gradientTransform="translate(-2773.32 1435.65)" xlink:href="#Degradado_sin_nombre_283"/><linearGradient id="Degradado_sin_nombre_285" x1="70.41" y1="305.86" x2="1129.59" y2="305.86" xlink:href="#Degradado_sin_nombre_275"/></defs><path class="cls-1" d="M716.65,1129.78h-240a28.59,28.59,0,0,1-28.59-28.59v-88.07H716.65a296.27,296.27,0,0,0,290.58-238H486.33V658.5h643.26v58.33c0,110.19-42.92,213.9-120.85,292S827,1129.78,716.65,1129.78Z"/><path class="cls-2" d="M544.63,1129.78H485.94c-229.13,0-415.53-185.26-415.53-412.95V483.53c0-227.7,186.4-412.95,415.53-412.95h58.69ZM427.25,193c-136.4,27.16-239.46,147.12-239.46,290.54v233.3c0,143.42,103.06,263.37,239.46,290.54Z"/><rect class="cls-3" x="427.25" y="315.24" width="117.38" height="109.6"/><rect class="cls-4" x="540.4" y="662.73" width="116.65" height="108.19" transform="translate(1315.55 118.1) rotate(90)"/><path class="cls-5" d="M716.65,541.5H70.41V483.17c0-227.69,185.25-412.95,412.94-412.95h646.24v58.33C1129.59,356.24,944.34,541.5,716.65,541.5ZM192.82,424.85H716.65c143.42,0,263.37-102.43,290.53-238H483.35C339.93,186.88,220,289.3,192.82,424.85Z"/></svg>
